<mxfile host="app.diagrams.net" modified="2021-04-28T07:30:54.747Z" agent="5.0 (Windows NT 6.1; Win64; x64) AppleWebKit/537.36 (KHTML, like Gecko) Chrome/87.0.4280.88 Safari/537.36" etag="TqZQNIKpNfMt1fD3xXc-" version="14.6.6" type="github">
  <diagram id="-6E6Ulmo4Ajp1IC_htVW" name="Page-1">
    <mxGraphModel dx="1246" dy="677" grid="1" gridSize="10" guides="1" tooltips="1" connect="1" arrows="1" fold="1" page="1" pageScale="1" pageWidth="827" pageHeight="1169" math="0" shadow="0">
      <root>
        <mxCell id="0" />
        <mxCell id="1" parent="0" />
        <mxCell id="dnoHEhGw6WpvXnjdrp3y-4" style="edgeStyle=orthogonalEdgeStyle;rounded=0;orthogonalLoop=1;jettySize=auto;html=1;exitX=0.5;exitY=1;exitDx=0;exitDy=0;" edge="1" parent="1" source="dnoHEhGw6WpvXnjdrp3y-1" target="dnoHEhGw6WpvXnjdrp3y-3">
          <mxGeometry relative="1" as="geometry" />
        </mxCell>
        <mxCell id="dnoHEhGw6WpvXnjdrp3y-1" value="各个站点gdpr_customers" style="shape=parallelogram;perimeter=parallelogramPerimeter;whiteSpace=wrap;html=1;fixedSize=1;" vertex="1" parent="1">
          <mxGeometry x="260" y="150" width="120" height="60" as="geometry" />
        </mxCell>
        <mxCell id="dnoHEhGw6WpvXnjdrp3y-6" style="edgeStyle=orthogonalEdgeStyle;rounded=0;orthogonalLoop=1;jettySize=auto;html=1;exitX=0.5;exitY=1;exitDx=0;exitDy=0;" edge="1" parent="1" source="dnoHEhGw6WpvXnjdrp3y-2" target="dnoHEhGw6WpvXnjdrp3y-5">
          <mxGeometry relative="1" as="geometry" />
        </mxCell>
        <mxCell id="dnoHEhGw6WpvXnjdrp3y-2" value="各个站点customers_info" style="shape=parallelogram;perimeter=parallelogramPerimeter;whiteSpace=wrap;html=1;fixedSize=1;size=0;" vertex="1" parent="1">
          <mxGeometry x="520" y="150" width="120" height="60" as="geometry" />
        </mxCell>
        <mxCell id="dnoHEhGw6WpvXnjdrp3y-8" style="edgeStyle=orthogonalEdgeStyle;rounded=0;orthogonalLoop=1;jettySize=auto;html=1;exitX=0.5;exitY=1;exitDx=0;exitDy=0;entryX=0.5;entryY=0;entryDx=0;entryDy=0;" edge="1" parent="1" source="dnoHEhGw6WpvXnjdrp3y-3" target="dnoHEhGw6WpvXnjdrp3y-7">
          <mxGeometry relative="1" as="geometry" />
        </mxCell>
        <mxCell id="dnoHEhGw6WpvXnjdrp3y-3" value="select 公共字段" style="rounded=1;whiteSpace=wrap;html=1;" vertex="1" parent="1">
          <mxGeometry x="260" y="280" width="120" height="60" as="geometry" />
        </mxCell>
        <mxCell id="dnoHEhGw6WpvXnjdrp3y-9" style="edgeStyle=orthogonalEdgeStyle;rounded=0;orthogonalLoop=1;jettySize=auto;html=1;exitX=0.5;exitY=1;exitDx=0;exitDy=0;" edge="1" parent="1" source="dnoHEhGw6WpvXnjdrp3y-5" target="dnoHEhGw6WpvXnjdrp3y-7">
          <mxGeometry relative="1" as="geometry" />
        </mxCell>
        <mxCell id="dnoHEhGw6WpvXnjdrp3y-5" value="select&amp;nbsp; 公共字段" style="rounded=1;whiteSpace=wrap;html=1;" vertex="1" parent="1">
          <mxGeometry x="520" y="280" width="120" height="60" as="geometry" />
        </mxCell>
        <mxCell id="dnoHEhGw6WpvXnjdrp3y-12" style="edgeStyle=orthogonalEdgeStyle;rounded=0;orthogonalLoop=1;jettySize=auto;html=1;exitX=0.5;exitY=1;exitDx=0;exitDy=0;entryX=0.5;entryY=0;entryDx=0;entryDy=0;" edge="1" parent="1" source="dnoHEhGw6WpvXnjdrp3y-7" target="dnoHEhGw6WpvXnjdrp3y-11">
          <mxGeometry relative="1" as="geometry" />
        </mxCell>
        <mxCell id="dnoHEhGw6WpvXnjdrp3y-7" value="left join on t1.customers_id = t2.customers_info_id" style="rounded=1;whiteSpace=wrap;html=1;" vertex="1" parent="1">
          <mxGeometry x="380" y="440" width="120" height="60" as="geometry" />
        </mxCell>
        <mxCell id="dnoHEhGw6WpvXnjdrp3y-11" value="输出dim_gdpr_customers" style="shape=parallelogram;perimeter=parallelogramPerimeter;whiteSpace=wrap;html=1;fixedSize=1;" vertex="1" parent="1">
          <mxGeometry x="380" y="555" width="120" height="60" as="geometry" />
        </mxCell>
      </root>
    </mxGraphModel>
  </diagram>
</mxfile>
